<svg width="149" height="57" viewBox="0 0 149 57" fill="none" xmlns="http://www.w3.org/2000/svg">
<path d="M11.0005 56.1198C15.6146 56.1198 19.9708 53.8095 23.2666 51.4992C25.1581 50.1418 26.935 48.6112 28.6258 46.8497L24.9288 42.9798C21.9483 45.8966 16.0445 49.9974 11.459 49.9974C9.99739 49.9974 9.02299 49.4777 7.84796 47.3694C14.5256 45.5211 19.4549 40.4096 19.4549 35.6445C19.4549 31.2838 16.1878 28.4247 11.9176 28.4247C4.06494 28.4247 0.224609 37.5506 0.224609 44.0773C0.224609 50.4595 3.80701 56.1198 11.0005 56.1198ZM7.1888 42.5467C7.1888 39.9764 7.64735 33.9407 12.5481 33.9407C13.4652 33.9407 14.1816 35.1824 14.1816 36.9153C14.1816 39.341 9.91142 42.5467 7.1888 42.5467ZM33.3355 32.5545C38.6662 26.0277 44.6847 17.4795 44.6847 10.1731C44.6847 4.94599 43.7962 0.671875 37.9784 0.671875C30.2117 0.671875 25.6548 21.436 23.8206 32.7567C22.9035 38.4169 22.4164 43.0664 22.1011 46.4453C21.9292 48.4091 21.8145 50.1708 21.7573 51.7302C23.1329 52.5677 24.5658 53.2897 26.0847 53.9251C28.6927 55.0513 32.0173 56.1198 35.2557 56.1198H35.9723C36.6887 55.831 37.3765 55.5422 38.007 55.2245C39.1247 54.6758 40.3571 54.0117 41.0163 53.3474C46.4041 52.1057 50.3878 50.4018 54.6006 46.5609L52.3939 41.7958C49.3561 44.857 46.5475 46.1566 43.7676 47.8026C46.0316 44.2794 46.5188 41.2759 46.5188 37.3773C46.5188 32.6989 43.8535 28.3959 39.3826 28.3959C37.6344 28.3959 35.9435 30.1863 33.7941 32.8721L33.3355 32.5545ZM36.3735 34.9804C39.3826 34.9804 40.0992 36.6842 40.0992 38.5901C40.0992 43.0087 38.4369 50.575 34.4819 50.575C33.3642 50.575 32.1032 50.344 30.9855 50.113C30.355 49.9686 29.7245 49.8242 29.094 49.6221C29.1513 48.9578 29.2086 48.2359 29.2946 47.4562C29.4379 46.0988 29.6672 44.3371 30.0111 42.2579C30.8421 37.1173 33.7081 34.9804 36.3735 34.9804ZM39.1821 8.527C38.6088 16.7286 33.1349 24.2084 30.0111 30.273C30.9282 25.1902 34.5679 6.21667 37.7204 6.21667C39.01 6.21667 39.1821 8.20934 39.1821 8.527ZM52.4034 47.6871C52.6328 51.3548 52.69 56.4375 57.1322 56.4375C59.7975 56.4375 63.3799 50.8927 65.6153 46.2432C65.7013 49.1311 68.1661 51.9324 72.2643 51.9324C74.7003 51.9324 77.5089 50.8927 80.0309 49.2755V42.4889C79.1998 43.0376 78.3974 43.5574 77.6235 43.9905C76.2766 44.7704 74.6431 45.4635 73.4966 45.4635C70.4015 45.4635 69.6277 43.5863 69.6277 41.738C69.6277 40.8428 69.771 40.0053 69.9715 39.341C70.0576 38.9656 70.1722 38.6191 70.3155 38.2725C72.0064 34.4893 73.2101 32.9299 73.2101 30.8218C73.2101 29.4066 71.7485 28.3959 69.5417 28.3959C67.8794 28.3959 66.4464 29.3778 66.2172 30.4463L58.6799 48.5535L58.2786 48.5824L59.3963 30.3019C59.3677 29.2912 58.6225 28.3959 57.3329 28.3959C57.1322 28.3959 56.9889 28.4247 56.7883 28.4536L53.3492 29.0023C52.1169 29.2044 51.8876 31.4859 51.8876 35.4424C51.8876 38.5035 52.1169 40.9872 52.3462 46.7629L52.4034 47.6871ZM94.5707 50.6039C94.5707 47.6004 92.9084 45.9255 89.7273 45.9255C86.0302 45.9255 84.4826 48.6402 84.4826 51.4414C84.4826 54.7336 86.3742 56.1198 89.1828 56.1198C94.4847 56.1198 94.5707 51.0949 94.5707 50.6039ZM117.192 44.1061C114.67 46.1854 110.371 50.575 107.649 50.575C106.474 50.575 106.187 49.4777 106.187 47.7449C106.187 42.4023 110.028 32.6122 110.028 30.0419C110.028 29.0312 109.569 28.3959 107.964 28.3959C106.245 28.3959 103.293 29.2044 102.748 31.1971C101.372 36.9729 98.8505 45.4345 98.8505 50.3152C98.8505 53.8095 100.197 56.1198 104.181 56.1198C108.595 56.1198 114.441 52.5099 117.192 49.9686V44.1061ZM104.382 20.2809C104.382 22.9377 105.958 24.6705 109.311 24.6705C113.209 24.6705 114.871 22.1002 114.871 19.501C114.871 16.6132 112.664 15.458 109.999 15.458C105.757 15.458 104.382 18.5192 104.382 20.2809ZM128.408 34.2871C128.522 34.1717 128.494 42.46 128.837 44.0195C128.408 45.1458 127.92 46.1276 127.376 47.0229C126.459 48.5535 125.141 50.0264 123.765 50.0264C121.1 50.0264 120.555 48.3225 120.555 46.7919C120.555 42.9221 123.335 36.7708 128.408 34.2871ZM147.265 43.7885C146.119 44.7704 145.03 45.6367 143.97 46.4164C142.107 47.7449 139.986 49.0444 138.553 49.0444C137.034 49.0444 136.547 47.0229 136.547 44.828C136.547 43.0954 137.034 40.8717 137.407 39.8319C141.391 30.1285 146.119 22.158 147.122 11.2416C147.179 10.5197 147.208 9.82657 147.208 9.16234C147.208 4.74384 145.889 0.671875 142.278 0.671875C134.999 0.671875 128.637 15.1692 128.293 29.9843C119.581 30.7928 113.677 39.2256 113.677 46.5897C113.677 51.4126 116.027 56.1198 120.956 56.1198C124.453 56.1198 128.035 53.7517 130.872 50.9793C132.706 55.4556 136.202 56.091 137.264 56.091C139.155 56.091 141.877 54.6758 144.113 53.2896C145.431 52.4521 146.778 51.528 148.125 50.4595L147.265 43.7885ZM141.877 13.3499C141.504 17.4218 139.843 22.62 138.295 26.8941C137.377 29.3778 136.375 31.8614 135.285 34.3739V34.0851C135.285 32.9299 135.285 29.6376 135.601 25.8257C135.831 23.0243 137.321 7.37184 140.99 7.37184C141.677 7.37184 142.05 8.06494 142.05 10.1442C142.05 10.924 141.992 11.9925 141.877 13.3499Z" fill="#646464"/>
</svg>
