<?xml version="1.0" encoding="UTF-8" standalone="no"?>
<!-- Created with Inkscape (http://www.inkscape.org/) -->

<svg
   width="264.58334mm"
   height="104.90825mm"
   viewBox="0 0 264.58334 104.90825"
   version="1.1"
   id="svg1"
   sodipodi:docname="XXI.svg"
   inkscape:version="1.3.2 (091e20e, 2023-11-25, custom)"
   xmlns:inkscape="http://www.inkscape.org/namespaces/inkscape"
   xmlns:sodipodi="http://sodipodi.sourceforge.net/DTD/sodipodi-0.dtd"
   xmlns="http://www.w3.org/2000/svg"
   xmlns:svg="http://www.w3.org/2000/svg">
  <sodipodi:namedview
     id="namedview1"
     pagecolor="#ffffff"
     bordercolor="#000000"
     borderopacity="0.25"
     inkscape:showpageshadow="2"
     inkscape:pageopacity="0.0"
     inkscape:pagecheckerboard="0"
     inkscape:deskcolor="#d1d1d1"
     inkscape:document-units="mm"
     inkscape:zoom="1.218"
     inkscape:cx="-102.62726"
     inkscape:cy="71.839083"
     inkscape:window-width="1920"
     inkscape:window-height="1094"
     inkscape:window-x="-11"
     inkscape:window-y="-11"
     inkscape:window-maximized="1"
     inkscape:current-layer="layer1" />
  <defs
     id="defs1">
    <clipPath
       clipPathUnits="userSpaceOnUse"
       id="clipPath66">
      <path
         d="M 0,0 H 595.276 V 841.89 H 0 Z"
         transform="translate(-113.55,-700.97772)"
         id="path66" />
    </clipPath>
    <clipPath
       clipPathUnits="userSpaceOnUse"
       id="clipPath68">
      <path
         d="M 0,0 H 595.276 V 841.89 H 0 Z"
         transform="translate(-128.37651,-700.97772)"
         id="path68" />
    </clipPath>
    <clipPath
       clipPathUnits="userSpaceOnUse"
       id="clipPath70">
      <path
         d="M 0,0 H 595.276 V 841.89 H 0 Z"
         transform="translate(-143.362,-700.89512)"
         id="path70" />
    </clipPath>
    <clipPath
       clipPathUnits="userSpaceOnUse"
       id="clipPath72">
      <path
         d="M 0,0 H 595.276 V 841.89 H 0 Z"
         transform="translate(-73.367402,-699.56072)"
         id="path72" />
    </clipPath>
    <clipPath
       clipPathUnits="userSpaceOnUse"
       id="clipPath74">
      <path
         d="M 0,0 H 595.276 V 841.89 H 0 Z"
         transform="translate(-75.971304,-691.04501)"
         id="path74" />
    </clipPath>
    <clipPath
       clipPathUnits="userSpaceOnUse"
       id="clipPath76">
      <path
         d="M 0,0 H 595.276 V 841.89 H 0 Z"
         transform="translate(-84.559105,-691.04501)"
         id="path76" />
    </clipPath>
    <clipPath
       clipPathUnits="userSpaceOnUse"
       id="clipPath78">
      <path
         d="M 0,0 H 595.276 V 841.89 H 0 Z"
         transform="translate(-89.950202,-691.03082)"
         id="path78" />
    </clipPath>
    <clipPath
       clipPathUnits="userSpaceOnUse"
       id="clipPath80">
      <path
         d="M 0,0 H 595.276 V 841.89 H 0 Z"
         transform="translate(-101.8428,-691.04501)"
         id="path80" />
    </clipPath>
    <clipPath
       clipPathUnits="userSpaceOnUse"
       id="clipPath82">
      <path
         d="M 0,0 H 595.276 V 841.89 H 0 Z"
         transform="translate(-109.3813,-691.04501)"
         id="path82" />
    </clipPath>
  </defs>
  <g
     inkscape:label="Layer 1"
     inkscape:groupmode="layer"
     id="layer1"
     transform="translate(-264.32452,-140.32575)">
    <g
       id="g1">
      <path
         id="path65"
         d="m 0,0 c 0.697,-0.061 1.412,-0.53 1.821,-1.141 l 6.518,-9.469 c 0.389,-0.551 0.573,-1.039 0.573,-1.387 0,-0.428 -0.184,-0.775 -0.512,-0.938 l -0.102,0.041 c 0.184,0.181 0.265,0.387 0.265,0.612 0,0.305 -0.122,0.672 -0.366,1.039 l -6.579,9.61 c -0.616,0.899 -1.251,1.451 -1.64,1.592 z m 4.077,-1.757 c -0.206,0.308 -0.308,0.574 -0.308,0.777 0,0.47 0.224,0.737 0.697,0.857 0.285,0.062 0.471,0.082 0.471,0.41 0,0.262 -0.143,0.367 -0.493,0.367 -0.451,0 -1.247,0.004 -2.415,0.004 -0.963,0 -1.866,-0.004 -2.726,-0.004 -0.348,0 -0.513,-0.123 -0.513,-0.409 0,-0.531 0.658,-0.347 1.249,-0.796 0.206,-0.162 0.963,-0.877 1.782,-2.081 l 2.665,-3.895 c 0.082,-0.145 0.143,-0.266 0.143,-0.389 0,-0.124 -0.041,-0.266 -0.122,-0.368 l -2.724,-3.427 c -0.738,-0.938 -1.353,-1.674 -2.195,-2.102 -0.468,-0.226 -0.921,-0.245 -0.921,-0.611 0,-0.227 0.204,-0.389 0.536,-0.389 h 2.13 2.086 c 0.371,0 0.574,0.143 0.574,0.448 0,0.389 -0.346,0.326 -0.88,0.43 -0.593,0.122 -0.882,0.345 -0.882,0.856 0,0.407 0.269,0.816 0.699,1.368 L 4.977,-8.1 c 0.125,0.145 0.206,0.223 0.288,0.223 0.043,0 0.142,-0.078 0.246,-0.242 l 2.131,-3.063 c 0.308,-0.428 0.449,-0.815 0.449,-1.1 0,-0.838 -1.127,-0.531 -1.127,-1.122 0,-0.247 0.206,-0.409 0.572,-0.409 0.353,0 1.129,0.039 2.36,0.039 0.964,0 1.781,-0.018 2.482,-0.018 0.346,0 0.509,0.141 0.509,0.427 0,0.389 -0.41,0.307 -0.88,0.634 -0.33,0.224 -0.964,0.876 -1.742,1.999 L 7.07,-6.121 c -0.082,0.123 -0.126,0.225 -0.126,0.347 0,0.125 0.044,0.244 0.165,0.388 l 2.233,2.775 c 1.045,1.306 1.864,2.06 2.375,2.285 0.512,0.224 1.025,0.083 1.025,0.613 0,0.283 -0.14,0.367 -0.47,0.367 -0.369,0 -1.066,0.004 -1.989,0.004 -1.021,0 -1.758,-0.004 -2.211,-0.004 -0.266,0 -0.411,-0.145 -0.411,-0.367 0,-0.37 0.289,-0.348 0.801,-0.469 0.531,-0.125 0.717,-0.288 0.717,-0.735 0,-0.471 -0.247,-0.797 -0.554,-1.185 L 6.638,-4.59 C 6.516,-4.753 6.414,-4.815 6.33,-4.815 c -0.102,0 -0.205,0.08 -0.326,0.264 z"
         style="fill:#cfab7a;fill-opacity:1;fill-rule:nonzero;stroke:none"
         transform="matrix(7.238546,0,0,-7.238546,273.9735,145.09159)"
         clip-path="url(#clipPath66)" />
      <path
         id="path67"
         d="m 0,0 c 0.697,-0.061 1.414,-0.53 1.826,-1.141 l 6.513,-9.469 c 0.389,-0.551 0.573,-1.039 0.573,-1.387 0,-0.428 -0.184,-0.775 -0.512,-0.938 l -0.102,0.041 c 0.184,0.181 0.267,0.387 0.267,0.612 0,0.305 -0.122,0.672 -0.368,1.039 l -6.577,9.61 c -0.616,0.899 -1.251,1.451 -1.64,1.592 z m 4.079,-1.757 c -0.206,0.308 -0.308,0.574 -0.308,0.777 0,0.47 0.224,0.737 0.697,0.857 0.287,0.062 0.471,0.082 0.471,0.41 0,0.262 -0.145,0.367 -0.493,0.367 -0.451,0 -1.247,0.004 -2.417,0.004 -0.963,0 -1.864,-0.004 -2.726,-0.004 -0.348,0 -0.511,-0.123 -0.511,-0.409 0,-0.531 0.654,-0.347 1.249,-0.796 0.206,-0.162 0.963,-0.877 1.785,-2.081 l 2.662,-3.895 c 0.08,-0.145 0.145,-0.266 0.145,-0.389 0,-0.124 -0.043,-0.266 -0.128,-0.368 l -2.722,-3.427 c -0.738,-0.938 -1.353,-1.674 -2.191,-2.102 -0.472,-0.226 -0.925,-0.245 -0.925,-0.611 0,-0.227 0.206,-0.389 0.532,-0.389 h 2.133 2.089 c 0.371,0 0.574,0.143 0.574,0.448 0,0.389 -0.346,0.326 -0.882,0.43 -0.591,0.122 -0.88,0.345 -0.88,0.856 0,0.407 0.267,0.816 0.697,1.368 L 4.979,-8.1 c 0.125,0.145 0.204,0.223 0.288,0.223 0.041,0 0.142,-0.078 0.246,-0.242 l 2.129,-3.063 c 0.308,-0.428 0.451,-0.815 0.451,-1.1 0,-0.838 -1.127,-0.531 -1.127,-1.122 0,-0.247 0.204,-0.409 0.575,-0.409 0.35,0 1.124,0.039 2.357,0.039 0.962,0 1.783,-0.018 2.477,-0.018 0.349,0 0.514,0.141 0.514,0.427 0,0.389 -0.41,0.307 -0.88,0.634 -0.328,0.224 -0.964,0.876 -1.744,1.999 l -3.197,4.611 c -0.081,0.123 -0.122,0.225 -0.122,0.347 0,0.125 0.041,0.244 0.165,0.388 l 2.233,2.775 c 1.045,1.306 1.866,2.06 2.375,2.285 0.514,0.224 1.025,0.083 1.025,0.613 0,0.283 -0.144,0.367 -0.47,0.367 -0.371,0 -1.064,0.004 -1.987,0.004 -1.025,0 -1.766,-0.004 -2.215,-0.004 -0.264,0 -0.409,-0.145 -0.409,-0.367 0,-0.37 0.287,-0.348 0.801,-0.469 0.531,-0.125 0.717,-0.288 0.717,-0.735 0,-0.471 -0.249,-0.797 -0.554,-1.185 L 6.64,-4.59 C 6.516,-4.753 6.414,-4.815 6.33,-4.815 c -0.102,0 -0.203,0.08 -0.324,0.264 z"
         style="fill:#cfab7a;fill-opacity:1;fill-rule:nonzero;stroke:none"
         transform="matrix(7.238546,0,0,-7.238546,381.29583,145.09159)"
         clip-path="url(#clipPath68)" />
      <path
         id="path69"
         d="m 0,0 c 0.984,-0.284 1.33,-0.937 1.33,-2.242 v -7.755 c 0,-1.55 -0.081,-2.408 -1.165,-2.897 l -0.045,0.083 c 0.76,0.753 0.78,1.631 0.78,2.752 v 0.185 7.775 c 0,1.06 -0.226,1.671 -0.941,2.018 z m 2.971,-2.468 c 0,0.957 0.081,1.652 0.472,2.04 0.448,0.449 1.227,0.267 1.227,0.798 0,0.243 -0.145,0.367 -0.43,0.367 -0.143,0 -1.251,0.004 -3.566,0.004 -1.124,0 -1.782,-0.004 -1.986,-0.004 -0.348,0 -0.516,-0.186 -0.516,-0.43 0,-0.673 1.048,-0.247 1.787,-0.816 0.552,-0.428 0.552,-1.019 0.552,-2.163 v -7.997 c 0,-0.998 -0.267,-1.652 -0.717,-1.9 -0.574,-0.306 -1.045,-0.345 -1.045,-0.772 0,-0.247 0.165,-0.411 0.493,-0.411 0.552,0 1.453,0.022 2.6,0.022 1.475,0 2.481,-0.022 2.991,-0.022 0.389,0 0.574,0.145 0.574,0.449 0,0.552 -0.737,0.409 -1.395,0.635 -0.715,0.244 -1.041,0.917 -1.041,2.06 z"
         style="fill:#cfab7a;fill-opacity:1;fill-rule:nonzero;stroke:none"
         transform="matrix(7.238546,0,0,-7.238546,489.76903,145.68951)"
         clip-path="url(#clipPath70)" />
    </g>
  </g>
</svg>
